<?xml version="1.0" encoding="UTF-8"?>
<svg width="127px" height="32px" viewBox="0 0 127 32" version="1.1" xmlns="http://www.w3.org/2000/svg" xmlns:xlink="http://www.w3.org/1999/xlink">
    <!-- Generator: Sketch 55.1 (78136) - https://sketchapp.com -->
    <title>编组</title>
    <desc>Created with Sketch.</desc>
    <defs>
        <polygon id="path-1" points="0.951069767 2.71454264 0.951069767 0.431131783 0.0982325581 0.431131783 0.0982325581 0.125767442 2.14995349 0.125767442 2.14995349 0.431131783 1.29364341 0.431131783 1.29364341 2.71454264"></polygon>
        <linearGradient x1="50.0017737%" y1="0.0018637409%" x2="50.0017737%" y2="99.9989287%" id="linearGradient-3">
            <stop stop-color="#505D70" offset="0%"></stop>
            <stop stop-color="#28313C" offset="100%"></stop>
        </linearGradient>
        <path d="M2.01996899,0.125767442 L1.39981395,1.92694574 C1.33730233,2.10951938 1.29165891,2.24768992 1.26213953,2.34170543 L1.26213953,2.34170543 C1.23634109,2.25686822 1.19491473,2.1296124 1.13860465,1.95869767 L1.13860465,1.95869767 L0.525891473,0.125767442 L0.0101705426,0.125767442 L0.0101705426,2.71454264 L0.340341085,2.71454264 L0.340341085,0.51075969 L1.08924031,2.71454264 L1.39832558,2.71454264 L2.15044961,0.54772093 L2.15044961,2.71454264 L2.48062016,2.71454264 L2.48062016,0.125767442 L2.01996899,0.125767442 Z" id="path-4"></path>
        <linearGradient x1="50.0016106%" y1="0.0018637409%" x2="50.0016106%" y2="99.9989287%" id="linearGradient-6">
            <stop stop-color="#505D70" offset="0%"></stop>
            <stop stop-color="#28313C" offset="100%"></stop>
        </linearGradient>
        <path d="M2.71776744,0.48124031 C2.20229457,0.695565891 1.7456124,0.998945736 1.36086822,1.38393798 L1.36086822,1.38393798 C1.07088372,1.67317829 0.837705426,1.97531783 0.667286822,2.28167442 L0.667286822,2.28167442 C0.493891473,2.59324031 0.365147287,2.94623256 0.283782946,3.33097674 L0.283782946,3.33097674 C0.205643411,3.6976124 0.157767442,4.12750388 0.141891473,4.60775194 L0.141891473,4.60775194 C0.126263566,5.06170543 0.118077519,5.61463566 0.118077519,6.2504186 L0.118077519,6.2504186 C0.118077519,6.88570543 0.126263566,7.43813953 0.141891473,7.89209302 L0.141891473,7.89209302 C0.157767442,8.37258915 0.205395349,8.80223256 0.283286822,9.16837209 L0.283286822,9.16837209 C0.365147287,9.55460465 0.494139535,9.90809302 0.667286822,10.2184186 L0.667286822,10.2184186 C0.83820155,10.5257674 1.07162791,10.8276589 1.36086822,11.116155 L1.36086822,11.116155 C1.74586047,11.5016434 2.20254264,11.8050233 2.71751938,12.0186047 L2.71751938,12.0186047 C3.23423256,12.2339225 3.82114729,12.3428217 4.46189147,12.3428217 L4.46189147,12.3428217 C5.10313178,12.3428217 5.68756589,12.2336744 6.19906977,12.0181085 L6.19906977,12.0181085 C6.70883721,11.8045271 7.1627907,11.5008992 7.54778295,11.115907 L7.54778295,11.115907 C7.83603101,10.8274109 8.06896124,10.5255194 8.24086822,10.2184186 L8.24086822,10.2184186 C8.41327132,9.9095814 8.54251163,9.55609302 8.62486822,9.16837209 L8.62486822,9.16837209 C8.70151938,8.80595349 8.75162791,8.37829457 8.77395349,7.89755039 L8.77395349,7.89755039 C8.7947907,7.43590698 8.8052093,6.88148837 8.8052093,6.2504186 L8.8052093,6.2504186 C8.8052093,5.61736434 8.7947907,5.06294574 8.77370543,4.60155039 L8.77370543,4.60155039 C8.75162791,4.12130233 8.70151938,3.69389147 8.62486822,3.33097674 L8.62486822,3.33097674 C8.54275969,2.94499225 8.41327132,2.59125581 8.24037209,2.27993798 L8.24037209,2.27993798 C8.06970543,1.97531783 7.83652713,1.67367442 7.54728682,1.3831938 L7.54728682,1.3831938 C7.16328682,0.999937984 6.7095814,0.696310078 6.19931783,0.481984496 L6.19931783,0.481984496 C5.68682171,0.266170543 5.1023876,0.157023256 4.46189147,0.157023256 L4.46189147,0.157023256 C3.82213953,0.157023256 3.23547287,0.265922481 2.71776744,0.48124031 M2.90306977,9.68086822 C2.7663876,9.54468217 2.65674419,9.39510078 2.57711628,9.23584496 L2.57711628,9.23584496 C2.49525581,9.07162791 2.43175194,8.86821705 2.38858915,8.63106977 L2.38858915,8.63106977 C2.34195349,8.37531783 2.31044961,8.05482171 2.29531783,7.67851163 L2.29531783,7.67851163 C2.28018605,7.28062016 2.27224806,6.80012403 2.27224806,6.2504186 L2.27224806,6.2504186 C2.27224806,5.69972093 2.28018605,5.21922481 2.29531783,4.82257364 L2.29531783,4.82257364 C2.31020155,4.44576744 2.34195349,4.12477519 2.38883721,3.86803101 L2.38883721,3.86803101 C2.43175194,3.63137984 2.49500775,3.42846512 2.57711628,3.26449612 L2.57711628,3.26449612 C2.65649612,3.10573643 2.7663876,2.95590698 2.90356589,2.81823256 L2.90356589,2.81823256 C3.328,2.39379845 3.83776744,2.18790698 4.46189147,2.18790698 L4.46189147,2.18790698 C5.0860155,2.18790698 5.59553488,2.39379845 6.01972093,2.8179845 L6.01972093,2.8179845 C6.15714729,2.95615504 6.26728682,3.10648062 6.3464186,3.26424806 L6.3464186,3.26424806 C6.42803101,3.42697674 6.49128682,3.63088372 6.53494574,3.86902326 L6.53494574,3.86902326 C6.5815814,4.12452713 6.61308527,4.44527132 6.62846512,4.8215814 L6.62846512,4.8215814 C6.64334884,5.21724031 6.65128682,5.69773643 6.65128682,6.2504186 L6.65128682,6.2504186 C6.65128682,6.80260465 6.64334884,7.28285271 6.62846512,7.67751938 L6.62846512,7.67751938 C6.61283721,8.05581395 6.58133333,8.37655814 6.53494574,8.63106977 L6.53494574,8.63106977 C6.49128682,8.8692093 6.42778295,9.07286822 6.34617054,9.23609302 L6.34617054,9.23609302 C6.26728682,9.39435659 6.15739535,9.54418605 6.01996899,9.68136434 L6.01996899,9.68136434 C5.59578295,10.1060465 5.0860155,10.3124341 4.46189147,10.3124341 L4.46189147,10.3124341 C3.83776744,10.3124341 3.32775194,10.1055504 2.90306977,9.68086822" id="path-7"></path>
        <linearGradient x1="50.0008061%" y1="0.00030168553%" x2="50.0008061%" y2="100.000722%" id="linearGradient-9">
            <stop stop-color="#505D70" offset="0%"></stop>
            <stop stop-color="#28313C" offset="100%"></stop>
        </linearGradient>
        <polygon id="path-10" points="0.242604651 0.0950077519 0.242604651 12.0947597 2.39652713 12.0947597 2.39652713 7.23423256 7.2267907 7.23423256 7.2267907 5.20334884 2.39652713 5.20334884 2.39652713 2.12539535 8.06300775 2.12539535 8.06300775 0.0950077519"></polygon>
        <linearGradient x1="49.9981523%" y1="-0.000829164427%" x2="49.9981523%" y2="100.000725%" id="linearGradient-12">
            <stop stop-color="#505D70" offset="0%"></stop>
            <stop stop-color="#28313C" offset="100%"></stop>
        </linearGradient>
        <path d="M4.42790698,0.0950077519 L0.0302635659,12.0444031 L0.0116589147,12.0947597 L2.31218605,12.0947597 L3.19454264,9.60248062 L7.31782946,9.60248062 L8.19968992,12.0947597 L10.499969,12.0947597 L6.1100155,0.119565891 L6.10083721,0.0950077519 L4.42790698,0.0950077519 Z M5.26213953,3.73085271 L6.61804651,7.60334884 L3.89631008,7.60334884 L5.26213953,3.73085271 Z" id="path-13"></path>
        <linearGradient x1="49.9995669%" y1="-0.000829164427%" x2="49.9995669%" y2="100.000725%" id="linearGradient-15">
            <stop stop-color="#505D70" offset="0%"></stop>
            <stop stop-color="#28313C" offset="100%"></stop>
        </linearGradient>
        <polygon id="path-16" points="6.62077519 0.0950077519 2.18790698 5.55286822 2.18790698 0.0950077519 0.0334883721 0.0950077519 0.0334883721 12.0947597 2.18790698 12.0947597 2.18790698 8.71665116 3.94741085 6.59423256 7.08613953 12.0756589 7.09705426 12.0947597 9.62654264 12.0947597 5.40427907 4.88682171 9.25767442 0.15627907 9.30753488 0.0950077519"></polygon>
        <linearGradient x1="50.0011261%" y1="-0.000829164427%" x2="50.0011261%" y2="100.000725%" id="linearGradient-18">
            <stop stop-color="#505D70" offset="0%"></stop>
            <stop stop-color="#28313C" offset="100%"></stop>
        </linearGradient>
        <path d="M3.52446512,0.0950077519 C1.59851163,0.0950077519 0.031751938,1.66176744 0.031751938,3.58747287 L0.031751938,3.58747287 L0.031751938,8.60229457 C0.031751938,10.5282481 1.59851163,12.0947597 3.52446512,12.0947597 L3.52446512,12.0947597 L7.85215504,12.0947597 L7.85215504,10.0643721 L3.64576744,10.060155 C2.84204651,10.060155 2.18815504,9.4060155 2.18815504,8.60229457 L2.18815504,8.60229457 L2.18567442,3.58697674 L2.18542636,3.54827907 C2.20576744,2.76365891 2.86139535,2.12539535 3.64675969,2.12539535 L3.64675969,2.12539535 L7.85215504,2.12539535 L7.85215504,0.0950077519 L3.52446512,0.0950077519 Z" id="path-19"></path>
        <linearGradient x1="49.9999721%" y1="-0.000829164427%" x2="49.9999721%" y2="100.000725%" id="linearGradient-21">
            <stop stop-color="#505D70" offset="0%"></stop>
            <stop stop-color="#28313C" offset="100%"></stop>
        </linearGradient>
        <path d="M13.3633488,0.334387597 L10.0698295,2.22065116 L0.390697674,7.79137984 C0.148837209,7.9307907 0,8.18827907 0,8.46710078 L0,8.46710078 L0,15.7075349 C0,15.9871008 0.149829457,16.2455814 0.392682171,16.3842481 L0.392682171,16.3842481 L13.5417054,23.9030078 C13.7820775,24.040186 14.0767752,24.039938 14.3166512,23.9025116 L14.3166512,23.9025116 L23.7062946,18.5155969 C23.9012713,18.4037209 24.1443721,18.5443721 24.1443721,18.7691163 L24.1443721,18.7691163 L24.1443721,21.3526822 C24.1443721,21.632 23.9947907,21.8899845 23.7524341,22.0288992 L23.7524341,22.0288992 L14.3156589,27.4378915 C14.0757829,27.575814 13.7808372,27.575814 13.5412093,27.4383876 L13.5412093,27.4383876 L0.437581395,19.9456744 C0.242356589,19.8342946 0,19.9751938 0,20.1996899 L0,20.1996899 L0,23.4579845 C0,23.7377984 0.149829457,23.996031 0.392682171,24.1346977 L0.392682171,24.1346977 L13.5422016,31.6492403 C13.7820775,31.7864186 14.0765271,31.7861705 14.316155,31.6487442 L14.316155,31.6487442 L27.4311938,24.1346977 C27.6735504,23.996031 27.8233798,23.7380465 27.8233798,23.4584806 L27.8233798,23.4584806 L27.8233798,12.4492403 C27.8233798,12.2247442 27.5802791,12.083845 27.3855504,12.1954729 L27.3855504,12.1954729 L14.2985426,19.6782636 C14.0589147,19.8156899 13.7644651,19.8156899 13.5243411,19.6782636 L13.5243411,19.6782636 L4.11162791,14.2963101 C3.86728682,14.1564031 3.71696124,13.8954419 3.7191938,13.6136434 L3.7191938,13.6136434 L3.74151938,10.659969 C3.74300775,10.4364651 3.98486822,10.2973023 4.17910078,10.4084341 L4.17910078,10.4084341 L13.5434419,15.7685581 C13.783814,15.9062326 14.0792558,15.9059845 14.3191318,15.767814 L14.3191318,15.767814 L27.2389457,8.34133333 C27.4346667,8.22896124 27.4346667,7.94691473 27.2389457,7.83429457 L27.2389457,7.83429457 L17.3583876,2.15888372 L14.1353178,0.332403101 C14.016,0.264930233 13.8835349,0.231193798 13.7508217,0.231193798 L13.7508217,0.231193798 C13.6171163,0.231193798 13.4834109,0.265426357 13.3633488,0.334387597 M13.6262946,11.6031008 L7.71224806,8.21779845 C7.51652713,8.10592248 7.51603101,7.82337984 7.71150388,7.71075969 L7.71150388,7.71075969 L13.2787597,4.50306977 C13.5188837,4.36465116 13.8145736,4.36415504 14.0551938,4.50207752 L14.0551938,4.50207752 L19.9784186,7.89258915 C20.1746357,8.00471318 20.1746357,8.28700775 19.9789147,8.39962791 L19.9789147,8.39962791 L14.4014884,11.6023566 C14.2814264,11.6715659 14.1472248,11.7060465 14.0132713,11.7060465 L14.0132713,11.7060465 C13.879814,11.7060465 13.7461085,11.671814 13.6262946,11.6031008" id="path-22"></path>
        <linearGradient x1="30.3176789%" y1="12.0933235%" x2="69.066309%" y2="88.1266481%" id="linearGradient-24">
            <stop stop-color="#505D70" offset="0%"></stop>
            <stop stop-color="#28313C" offset="100%"></stop>
        </linearGradient>
        <polygon id="path-25" points="0.0468837209 0.00595348837 0.0468837209 2.03906977 3.27913178 2.03658915 3.27913178 12.0947597 5.43379845 12.0947597 5.43379845 2.03658915 8.62213953 2.03658915 8.62213953 0.00595348837"></polygon>
        <linearGradient x1="50.0018849%" y1="0.000113885868%" x2="50.0018849%" y2="100.000681%" id="linearGradient-27">
            <stop stop-color="#505D70" offset="0%"></stop>
            <stop stop-color="#28313C" offset="100%"></stop>
        </linearGradient>
        <path d="M6.8995969,0.0868217054 L4.54846512,0.0868217054 L4.54821705,0.0868217054 L4.54821705,0.0873178295 L0.178356589,12.116093 L2.53023256,12.116093 L3.44905426,9.58635659 L7.99900775,9.58635659 L8.91782946,12.116093 L11.2697054,12.116093 L6.90009302,0.0873178295 L6.90034109,0.0868217054 L6.8995969,0.0868217054 Z M5.72427907,3.32403101 L7.28930233,7.63311628 L4.15875969,7.63311628 L5.72427907,3.32403101 Z" id="path-28"></path>
        <linearGradient x1="50.0004368%" y1="0.000484606026%" x2="50.0004368%" y2="99.9990215%" id="linearGradient-30">
            <stop stop-color="#505D70" offset="0%"></stop>
            <stop stop-color="#28313C" offset="100%"></stop>
        </linearGradient>
        <path d="M4.2703876,0.198945736 L4.04862016,0.199193798 L3.69662016,0.19944186 C1.74412403,0.19944186 0.155286822,1.78530233 0.150077519,3.73655814 L0.150077519,3.73655814 L0.150325581,3.76955039 C0.170666667,5.70815504 1.75355039,7.27888372 3.69662016,7.27888372 L3.69662016,7.27888372 L4.53606202,7.28012403 L4.75981395,7.28062016 L4.75981395,7.28062016 L5.1500155,7.28285271 L5.1500155,7.28285271 C5.97581395,7.28285271 6.64781395,7.95262016 6.65203101,8.77717829 L6.65203101,8.77717829 C6.64781395,9.60173643 5.97581395,10.2715039 5.1500155,10.2715039 L5.1500155,10.2715039 L4.75981395,10.272 L4.19075969,10.2722481 L0.571534884,10.2754729 L0.571534884,12.3202481 L4.2703876,12.3202481 L4.84886822,12.3202481 L4.84886822,12.3167752 L4.84886822,12.3165271 L5.1500155,12.3162791 C7.10300775,12.3162791 8.69234109,10.7299225 8.6968062,8.77767442 L8.6968062,8.77767442 L8.6968062,8.77717829 L8.6968062,8.77668217 C8.69234109,6.82468217 7.10300775,5.23807752 5.1500155,5.23807752 L5.1500155,5.23807752 L4.84886822,5.23658915 L4.84886822,5.23584496 L4.53606202,5.23534884 L3.69686822,5.23410853 C2.88099225,5.23410853 2.21544186,4.58071318 2.1955969,3.76955039 L2.1955969,3.76955039 L2.19485271,3.73655814 C2.20006202,2.91249612 2.87181395,2.24421705 3.69686822,2.24421705 L3.69686822,2.24421705 L4.04862016,2.24396899 L4.2703876,2.24347287 L7.98610853,2.24 L7.98610853,0.195224806 L4.2703876,0.198945736 Z" id="path-31"></path>
        <linearGradient x1="49.9997365%" y1="0.000567114712%" x2="49.9997365%" y2="100.000469%" id="linearGradient-33">
            <stop stop-color="#505D70" offset="0%"></stop>
            <stop stop-color="#28313C" offset="100%"></stop>
        </linearGradient>
        <path d="M4.23937984,0.198945736 L4.01711628,0.199193798 L3.6656124,0.19944186 C1.71286822,0.19944186 0.124031008,1.78530233 0.118573643,3.73655814 L0.118573643,3.73655814 L0.118821705,3.76955039 C0.139162791,5.70815504 1.72204651,7.27888372 3.6656124,7.27888372 L3.6656124,7.27888372 L4.5048062,7.28012403 L4.72855814,7.28062016 L4.72855814,7.28062016 L5.11875969,7.28285271 L5.11875969,7.28285271 C5.94431008,7.28285271 6.61631008,7.95262016 6.62052713,8.77717829 L6.62052713,8.77717829 C6.61631008,9.60173643 5.94431008,10.2715039 5.11875969,10.2715039 L5.11875969,10.2715039 L4.72855814,10.272 L4.15950388,10.2722481 L0.54027907,10.2754729 L0.54027907,12.3202481 L4.23937984,12.3202481 L4.81786047,12.3202481 L4.81786047,12.3167752 L4.81786047,12.3165271 L5.11875969,12.3162791 C7.07175194,12.3162791 8.66083721,10.7299225 8.66505426,8.77767442 L8.66505426,8.77767442 L8.66505426,8.77717829 L8.66505426,8.77668217 C8.66083721,6.82468217 7.07175194,5.23807752 5.11875969,5.23807752 L5.11875969,5.23807752 L4.81786047,5.23658915 L4.81786047,5.23584496 L4.5048062,5.23534884 L3.6656124,5.23410853 C2.84973643,5.23410853 2.18368992,4.58071318 2.16384496,3.76955039 L2.16384496,3.76955039 L2.16334884,3.73655814 C2.1688062,2.91249612 2.84031008,2.24421705 3.6656124,2.24421705 L3.6656124,2.24421705 L4.01711628,2.24396899 L4.23937984,2.24347287 L7.95485271,2.24 L7.95485271,0.195224806 L4.23937984,0.198945736 Z" id="path-34"></path>
        <linearGradient x1="50.0027408%" y1="0.000567114712%" x2="50.0027408%" y2="100.000469%" id="linearGradient-36">
            <stop stop-color="#505D70" offset="0%"></stop>
            <stop stop-color="#28313C" offset="100%"></stop>
        </linearGradient>
    </defs>
    <g id="二期" stroke="none" stroke-width="1" fill="none" fill-rule="evenodd">
        <g id="Projects" transform="translate(-144.000000, -17.000000)">
            <g id="编组-2">
                <g id="编组" transform="translate(144.000000, 17.000000)">
                    <g transform="translate(121.550388, 6.466481)">
                        <mask id="mask-2" fill="white">
                            <use xlink:href="#path-1"></use>
                        </mask>
                        <g id="Clip-2"></g>
                        <polygon id="Fill-1" fill="url(#linearGradient-3)" mask="url(#mask-2)" points="0.951069767 2.71454264 0.951069767 0.431131783 0.0982325581 0.431131783 0.0982325581 0.125767442 2.14995349 0.125767442 2.14995349 0.431131783 1.29364341 0.431131783 1.29364341 2.71454264"></polygon>
                    </g>
                    <g transform="translate(124.031008, 6.466481)">
                        <mask id="mask-5" fill="white">
                            <use xlink:href="#path-4"></use>
                        </mask>
                        <g id="Clip-4"></g>
                        <path d="M2.01996899,0.125767442 L1.39981395,1.92694574 C1.33730233,2.10951938 1.29165891,2.24768992 1.26213953,2.34170543 L1.26213953,2.34170543 C1.23634109,2.25686822 1.19491473,2.1296124 1.13860465,1.95869767 L1.13860465,1.95869767 L0.525891473,0.125767442 L0.0101705426,0.125767442 L0.0101705426,2.71454264 L0.340341085,2.71454264 L0.340341085,0.51075969 L1.08924031,2.71454264 L1.39832558,2.71454264 L2.15044961,0.54772093 L2.15044961,2.71454264 L2.48062016,2.71454264 L2.48062016,0.125767442 L2.01996899,0.125767442 Z" id="Fill-3" fill="url(#linearGradient-6)" mask="url(#mask-5)"></path>
                    </g>
                    <g transform="translate(44.403101, 10.435473)">
                        <mask id="mask-8" fill="white">
                            <use xlink:href="#path-7"></use>
                        </mask>
                        <g id="Clip-6"></g>
                        <path d="M2.71776744,0.48124031 C2.20229457,0.695565891 1.7456124,0.998945736 1.36086822,1.38393798 L1.36086822,1.38393798 C1.07088372,1.67317829 0.837705426,1.97531783 0.667286822,2.28167442 L0.667286822,2.28167442 C0.493891473,2.59324031 0.365147287,2.94623256 0.283782946,3.33097674 L0.283782946,3.33097674 C0.205643411,3.6976124 0.157767442,4.12750388 0.141891473,4.60775194 L0.141891473,4.60775194 C0.126263566,5.06170543 0.118077519,5.61463566 0.118077519,6.2504186 L0.118077519,6.2504186 C0.118077519,6.88570543 0.126263566,7.43813953 0.141891473,7.89209302 L0.141891473,7.89209302 C0.157767442,8.37258915 0.205395349,8.80223256 0.283286822,9.16837209 L0.283286822,9.16837209 C0.365147287,9.55460465 0.494139535,9.90809302 0.667286822,10.2184186 L0.667286822,10.2184186 C0.83820155,10.5257674 1.07162791,10.8276589 1.36086822,11.116155 L1.36086822,11.116155 C1.74586047,11.5016434 2.20254264,11.8050233 2.71751938,12.0186047 L2.71751938,12.0186047 C3.23423256,12.2339225 3.82114729,12.3428217 4.46189147,12.3428217 L4.46189147,12.3428217 C5.10313178,12.3428217 5.68756589,12.2336744 6.19906977,12.0181085 L6.19906977,12.0181085 C6.70883721,11.8045271 7.1627907,11.5008992 7.54778295,11.115907 L7.54778295,11.115907 C7.83603101,10.8274109 8.06896124,10.5255194 8.24086822,10.2184186 L8.24086822,10.2184186 C8.41327132,9.9095814 8.54251163,9.55609302 8.62486822,9.16837209 L8.62486822,9.16837209 C8.70151938,8.80595349 8.75162791,8.37829457 8.77395349,7.89755039 L8.77395349,7.89755039 C8.7947907,7.43590698 8.8052093,6.88148837 8.8052093,6.2504186 L8.8052093,6.2504186 C8.8052093,5.61736434 8.7947907,5.06294574 8.77370543,4.60155039 L8.77370543,4.60155039 C8.75162791,4.12130233 8.70151938,3.69389147 8.62486822,3.33097674 L8.62486822,3.33097674 C8.54275969,2.94499225 8.41327132,2.59125581 8.24037209,2.27993798 L8.24037209,2.27993798 C8.06970543,1.97531783 7.83652713,1.67367442 7.54728682,1.3831938 L7.54728682,1.3831938 C7.16328682,0.999937984 6.7095814,0.696310078 6.19931783,0.481984496 L6.19931783,0.481984496 C5.68682171,0.266170543 5.1023876,0.157023256 4.46189147,0.157023256 L4.46189147,0.157023256 C3.82213953,0.157023256 3.23547287,0.265922481 2.71776744,0.48124031 M2.90306977,9.68086822 C2.7663876,9.54468217 2.65674419,9.39510078 2.57711628,9.23584496 L2.57711628,9.23584496 C2.49525581,9.07162791 2.43175194,8.86821705 2.38858915,8.63106977 L2.38858915,8.63106977 C2.34195349,8.37531783 2.31044961,8.05482171 2.29531783,7.67851163 L2.29531783,7.67851163 C2.28018605,7.28062016 2.27224806,6.80012403 2.27224806,6.2504186 L2.27224806,6.2504186 C2.27224806,5.69972093 2.28018605,5.21922481 2.29531783,4.82257364 L2.29531783,4.82257364 C2.31020155,4.44576744 2.34195349,4.12477519 2.38883721,3.86803101 L2.38883721,3.86803101 C2.43175194,3.63137984 2.49500775,3.42846512 2.57711628,3.26449612 L2.57711628,3.26449612 C2.65649612,3.10573643 2.7663876,2.95590698 2.90356589,2.81823256 L2.90356589,2.81823256 C3.328,2.39379845 3.83776744,2.18790698 4.46189147,2.18790698 L4.46189147,2.18790698 C5.0860155,2.18790698 5.59553488,2.39379845 6.01972093,2.8179845 L6.01972093,2.8179845 C6.15714729,2.95615504 6.26728682,3.10648062 6.3464186,3.26424806 L6.3464186,3.26424806 C6.42803101,3.42697674 6.49128682,3.63088372 6.53494574,3.86902326 L6.53494574,3.86902326 C6.5815814,4.12452713 6.61308527,4.44527132 6.62846512,4.8215814 L6.62846512,4.8215814 C6.64334884,5.21724031 6.65128682,5.69773643 6.65128682,6.2504186 L6.65128682,6.2504186 C6.65128682,6.80260465 6.64334884,7.28285271 6.62846512,7.67751938 L6.62846512,7.67751938 C6.61283721,8.05581395 6.58133333,8.37655814 6.53494574,8.63106977 L6.53494574,8.63106977 C6.49128682,8.8692093 6.42778295,9.07286822 6.34617054,9.23609302 L6.34617054,9.23609302 C6.26728682,9.39435659 6.15739535,9.54418605 6.01996899,9.68136434 L6.01996899,9.68136434 C5.59578295,10.1060465 5.0860155,10.3124341 4.46189147,10.3124341 L4.46189147,10.3124341 C3.83776744,10.3124341 3.32775194,10.1055504 2.90306977,9.68086822" id="Fill-5" fill="url(#linearGradient-9)" mask="url(#mask-8)"></path>
                    </g>
                    <g transform="translate(54.573643, 10.683535)">
                        <mask id="mask-11" fill="white">
                            <use xlink:href="#path-10"></use>
                        </mask>
                        <g id="Clip-8"></g>
                        <polygon id="Fill-7" fill="url(#linearGradient-12)" mask="url(#mask-11)" points="0.242604651 0.0950077519 0.242604651 12.0947597 2.39652713 12.0947597 2.39652713 7.23423256 7.2267907 7.23423256 7.2267907 5.20334884 2.39652713 5.20334884 2.39652713 2.12539535 8.06300775 2.12539535 8.06300775 0.0950077519"></polygon>
                    </g>
                    <g transform="translate(61.767442, 10.683535)">
                        <mask id="mask-14" fill="white">
                            <use xlink:href="#path-13"></use>
                        </mask>
                        <g id="Clip-10"></g>
                        <path d="M4.42790698,0.0950077519 L0.0302635659,12.0444031 L0.0116589147,12.0947597 L2.31218605,12.0947597 L3.19454264,9.60248062 L7.31782946,9.60248062 L8.19968992,12.0947597 L10.499969,12.0947597 L6.1100155,0.119565891 L6.10083721,0.0950077519 L4.42790698,0.0950077519 Z M5.26213953,3.73085271 L6.61804651,7.60334884 L3.89631008,7.60334884 L5.26213953,3.73085271 Z" id="Fill-9" fill="url(#linearGradient-15)" mask="url(#mask-14)"></path>
                    </g>
                    <g transform="translate(109.147287, 10.683535)">
                        <mask id="mask-17" fill="white">
                            <use xlink:href="#path-16"></use>
                        </mask>
                        <g id="Clip-12"></g>
                        <polygon id="Fill-11" fill="url(#linearGradient-18)" mask="url(#mask-17)" points="6.62077519 0.0950077519 2.18790698 5.55286822 2.18790698 0.0950077519 0.0334883721 0.0950077519 0.0334883721 12.0947597 2.18790698 12.0947597 2.18790698 8.71665116 3.94741085 6.59423256 7.08613953 12.0756589 7.09705426 12.0947597 9.62654264 12.0947597 5.40427907 4.88682171 9.25767442 0.15627907 9.30753488 0.0950077519"></polygon>
                    </g>
                    <g transform="translate(99.720930, 10.683535)">
                        <mask id="mask-20" fill="white">
                            <use xlink:href="#path-19"></use>
                        </mask>
                        <g id="Clip-14"></g>
                        <path d="M3.52446512,0.0950077519 C1.59851163,0.0950077519 0.031751938,1.66176744 0.031751938,3.58747287 L0.031751938,3.58747287 L0.031751938,8.60229457 C0.031751938,10.5282481 1.59851163,12.0947597 3.52446512,12.0947597 L3.52446512,12.0947597 L7.85215504,12.0947597 L7.85215504,10.0643721 L3.64576744,10.060155 C2.84204651,10.060155 2.18815504,9.4060155 2.18815504,8.60229457 L2.18815504,8.60229457 L2.18567442,3.58697674 L2.18542636,3.54827907 C2.20576744,2.76365891 2.86139535,2.12539535 3.64675969,2.12539535 L3.64675969,2.12539535 L7.85215504,2.12539535 L7.85215504,0.0950077519 L3.52446512,0.0950077519 Z" id="Fill-13" fill="url(#linearGradient-21)" mask="url(#mask-20)"></path>
                    </g>
                    <g transform="translate(0.000000, 0.016868)">
                        <mask id="mask-23" fill="white">
                            <use xlink:href="#path-22"></use>
                        </mask>
                        <g id="Clip-16"></g>
                        <path d="M13.3633488,0.334387597 L10.0698295,2.22065116 L0.390697674,7.79137984 C0.148837209,7.9307907 0,8.18827907 0,8.46710078 L0,8.46710078 L0,15.7075349 C0,15.9871008 0.149829457,16.2455814 0.392682171,16.3842481 L0.392682171,16.3842481 L13.5417054,23.9030078 C13.7820775,24.040186 14.0767752,24.039938 14.3166512,23.9025116 L14.3166512,23.9025116 L23.7062946,18.5155969 C23.9012713,18.4037209 24.1443721,18.5443721 24.1443721,18.7691163 L24.1443721,18.7691163 L24.1443721,21.3526822 C24.1443721,21.632 23.9947907,21.8899845 23.7524341,22.0288992 L23.7524341,22.0288992 L14.3156589,27.4378915 C14.0757829,27.575814 13.7808372,27.575814 13.5412093,27.4383876 L13.5412093,27.4383876 L0.437581395,19.9456744 C0.242356589,19.8342946 0,19.9751938 0,20.1996899 L0,20.1996899 L0,23.4579845 C0,23.7377984 0.149829457,23.996031 0.392682171,24.1346977 L0.392682171,24.1346977 L13.5422016,31.6492403 C13.7820775,31.7864186 14.0765271,31.7861705 14.316155,31.6487442 L14.316155,31.6487442 L27.4311938,24.1346977 C27.6735504,23.996031 27.8233798,23.7380465 27.8233798,23.4584806 L27.8233798,23.4584806 L27.8233798,12.4492403 C27.8233798,12.2247442 27.5802791,12.083845 27.3855504,12.1954729 L27.3855504,12.1954729 L14.2985426,19.6782636 C14.0589147,19.8156899 13.7644651,19.8156899 13.5243411,19.6782636 L13.5243411,19.6782636 L4.11162791,14.2963101 C3.86728682,14.1564031 3.71696124,13.8954419 3.7191938,13.6136434 L3.7191938,13.6136434 L3.74151938,10.659969 C3.74300775,10.4364651 3.98486822,10.2973023 4.17910078,10.4084341 L4.17910078,10.4084341 L13.5434419,15.7685581 C13.783814,15.9062326 14.0792558,15.9059845 14.3191318,15.767814 L14.3191318,15.767814 L27.2389457,8.34133333 C27.4346667,8.22896124 27.4346667,7.94691473 27.2389457,7.83429457 L27.2389457,7.83429457 L17.3583876,2.15888372 L14.1353178,0.332403101 C14.016,0.264930233 13.8835349,0.231193798 13.7508217,0.231193798 L13.7508217,0.231193798 C13.6171163,0.231193798 13.4834109,0.265426357 13.3633488,0.334387597 M13.6262946,11.6031008 L7.71224806,8.21779845 C7.51652713,8.10592248 7.51603101,7.82337984 7.71150388,7.71075969 L7.71150388,7.71075969 L13.2787597,4.50306977 C13.5188837,4.36465116 13.8145736,4.36415504 14.0551938,4.50207752 L14.0551938,4.50207752 L19.9784186,7.89258915 C20.1746357,8.00471318 20.1746357,8.28700775 19.9789147,8.39962791 L19.9789147,8.39962791 L14.4014884,11.6023566 C14.2814264,11.6715659 14.1472248,11.7060465 14.0132713,11.7060465 L14.0132713,11.7060465 C13.879814,11.7060465 13.7461085,11.671814 13.6262946,11.6031008" id="Fill-15" fill="url(#linearGradient-24)" mask="url(#mask-23)"></path>
                    </g>
                    <g transform="translate(81.364341, 10.683535)">
                        <mask id="mask-26" fill="white">
                            <use xlink:href="#path-25"></use>
                        </mask>
                        <g id="Clip-18"></g>
                        <polygon id="Fill-17" fill="url(#linearGradient-27)" mask="url(#mask-26)" points="0.0468837209 0.00595348837 0.0468837209 2.03906977 3.27913178 2.03658915 3.27913178 12.0947597 5.43379845 12.0947597 5.43379845 2.03658915 8.62213953 2.03658915 8.62213953 0.00595348837"></polygon>
                    </g>
                    <g transform="translate(88.310078, 10.683535)">
                        <mask id="mask-29" fill="white">
                            <use xlink:href="#path-28"></use>
                        </mask>
                        <g id="Clip-20"></g>
                        <path d="M6.8995969,0.0868217054 L4.54846512,0.0868217054 L4.54821705,0.0868217054 L4.54821705,0.0873178295 L0.178356589,12.116093 L2.53023256,12.116093 L3.44905426,9.58635659 L7.99900775,9.58635659 L8.91782946,12.116093 L11.2697054,12.116093 L6.90009302,0.0873178295 L6.90034109,0.0868217054 L6.8995969,0.0868217054 Z M5.72427907,3.32403101 L7.28930233,7.63311628 L4.15875969,7.63311628 L5.72427907,3.32403101 Z" id="Fill-19" fill="url(#linearGradient-30)" mask="url(#mask-29)"></path>
                    </g>
                    <g transform="translate(34.976744, 10.435473)">
                        <mask id="mask-32" fill="white">
                            <use xlink:href="#path-31"></use>
                        </mask>
                        <g id="Clip-22"></g>
                        <path d="M4.2703876,0.198945736 L4.04862016,0.199193798 L3.69662016,0.19944186 C1.74412403,0.19944186 0.155286822,1.78530233 0.150077519,3.73655814 L0.150077519,3.73655814 L0.150325581,3.76955039 C0.170666667,5.70815504 1.75355039,7.27888372 3.69662016,7.27888372 L3.69662016,7.27888372 L4.53606202,7.28012403 L4.75981395,7.28062016 L4.75981395,7.28062016 L5.1500155,7.28285271 L5.1500155,7.28285271 C5.97581395,7.28285271 6.64781395,7.95262016 6.65203101,8.77717829 L6.65203101,8.77717829 C6.64781395,9.60173643 5.97581395,10.2715039 5.1500155,10.2715039 L5.1500155,10.2715039 L4.75981395,10.272 L4.19075969,10.2722481 L0.571534884,10.2754729 L0.571534884,12.3202481 L4.2703876,12.3202481 L4.84886822,12.3202481 L4.84886822,12.3167752 L4.84886822,12.3165271 L5.1500155,12.3162791 C7.10300775,12.3162791 8.69234109,10.7299225 8.6968062,8.77767442 L8.6968062,8.77767442 L8.6968062,8.77717829 L8.6968062,8.77668217 C8.69234109,6.82468217 7.10300775,5.23807752 5.1500155,5.23807752 L5.1500155,5.23807752 L4.84886822,5.23658915 L4.84886822,5.23584496 L4.53606202,5.23534884 L3.69686822,5.23410853 C2.88099225,5.23410853 2.21544186,4.58071318 2.1955969,3.76955039 L2.1955969,3.76955039 L2.19485271,3.73655814 C2.20006202,2.91249612 2.87181395,2.24421705 3.69686822,2.24421705 L3.69686822,2.24421705 L4.04862016,2.24396899 L4.2703876,2.24347287 L7.98610853,2.24 L7.98610853,0.195224806 L4.2703876,0.198945736 Z" id="Fill-21" fill="url(#linearGradient-33)" mask="url(#mask-32)"></path>
                    </g>
                    <g transform="translate(72.434109, 10.435473)">
                        <mask id="mask-35" fill="white">
                            <use xlink:href="#path-34"></use>
                        </mask>
                        <g id="Clip-24"></g>
                        <path d="M4.23937984,0.198945736 L4.01711628,0.199193798 L3.6656124,0.19944186 C1.71286822,0.19944186 0.124031008,1.78530233 0.118573643,3.73655814 L0.118573643,3.73655814 L0.118821705,3.76955039 C0.139162791,5.70815504 1.72204651,7.27888372 3.6656124,7.27888372 L3.6656124,7.27888372 L4.5048062,7.28012403 L4.72855814,7.28062016 L4.72855814,7.28062016 L5.11875969,7.28285271 L5.11875969,7.28285271 C5.94431008,7.28285271 6.61631008,7.95262016 6.62052713,8.77717829 L6.62052713,8.77717829 C6.61631008,9.60173643 5.94431008,10.2715039 5.11875969,10.2715039 L5.11875969,10.2715039 L4.72855814,10.272 L4.15950388,10.2722481 L0.54027907,10.2754729 L0.54027907,12.3202481 L4.23937984,12.3202481 L4.81786047,12.3202481 L4.81786047,12.3167752 L4.81786047,12.3165271 L5.11875969,12.3162791 C7.07175194,12.3162791 8.66083721,10.7299225 8.66505426,8.77767442 L8.66505426,8.77767442 L8.66505426,8.77717829 L8.66505426,8.77668217 C8.66083721,6.82468217 7.07175194,5.23807752 5.11875969,5.23807752 L5.11875969,5.23807752 L4.81786047,5.23658915 L4.81786047,5.23584496 L4.5048062,5.23534884 L3.6656124,5.23410853 C2.84973643,5.23410853 2.18368992,4.58071318 2.16384496,3.76955039 L2.16384496,3.76955039 L2.16334884,3.73655814 C2.1688062,2.91249612 2.84031008,2.24421705 3.6656124,2.24421705 L3.6656124,2.24421705 L4.01711628,2.24396899 L4.23937984,2.24347287 L7.95485271,2.24 L7.95485271,0.195224806 L4.23937984,0.198945736 Z" id="Fill-23" fill="url(#linearGradient-36)" mask="url(#mask-35)"></path>
                    </g>
                </g>
            </g>
        </g>
    </g>
</svg>